<?xml version="1.0" encoding="UTF-8" standalone="no"?>
<!DOCTYPE svg PUBLIC "-//W3C//DTD SVG 1.1//EN" "http://www.w3.org/Graphics/SVG/1.1/DTD/svg11.dtd">
<svg width="100%" height="100%" viewBox="0 0 66 66" version="1.1" xmlns="http://www.w3.org/2000/svg" xmlns:xlink="http://www.w3.org/1999/xlink" xml:space="preserve" xmlns:serif="http://www.serif.com/" style="fill-rule:evenodd;clip-rule:evenodd;stroke-linejoin:round;stroke-miterlimit:2;">
    <g transform="matrix(1,0,0,1,-190.472,-69.1229)">
        <g id="Artboard1" transform="matrix(1.41117,0,0,1.41117,-59.7741,-77.7551)">
            <rect x="177.332" y="104.082" width="46.34" height="46.34" style="fill:none;"/>
            <g transform="matrix(0.768403,0,0,0.768403,179.84,103.955)">
                <path d="M56.43,4.389C56.43,2.396 54.811,0.778 52.818,0.778L0.96,0.778C-1.034,0.778 -2.652,2.396 -2.652,4.389L-2.652,56.248C-2.652,58.241 -1.034,59.859 0.96,59.859L52.818,59.859C54.811,59.859 56.43,58.241 56.43,56.248L56.43,4.389Z" style="fill:rgb(255,170,0);"/>
            </g>
            <g transform="matrix(0.174961,0,0,0.174961,133.217,59.9677)">
                <path d="M408.821,331.275L408.821,343.012C397.661,343.339 387.48,348.566 380.775,357.55C380.692,357.661 380.626,357.781 380.545,357.892L367.855,357.892C366.115,357.892 364.707,359.302 364.707,361.04C364.707,362.779 366.115,364.188 367.855,364.188L376.854,364.188C375.971,366.111 375.251,368.093 374.721,370.128L367.855,370.128C366.115,370.128 364.707,371.537 364.707,373.276C364.707,375.014 366.115,376.424 367.855,376.424L373.691,376.424C373.486,379.09 373.542,381.793 373.935,384.504C374.503,388.415 375.705,392.123 377.422,395.558L367.855,395.558C366.115,395.558 364.707,396.967 364.707,398.706C364.707,400.444 366.115,401.853 367.855,401.853L381.449,401.853C383.193,404.045 385.195,406.046 387.447,407.816L367.845,407.816C366.105,407.816 364.697,409.225 364.697,410.964C364.697,412.702 366.105,414.112 367.845,414.112L399.572,414.112C402.555,414.995 405.654,415.49 408.821,415.58L408.821,456.29L320.733,456.29L320.733,331.275L332.431,331.275L332.431,337.523C332.431,339.261 333.839,340.671 335.579,340.671L393.973,340.671C395.713,340.671 397.121,339.261 397.121,337.523L397.121,331.275L408.821,331.275ZM439.619,374.97C442.217,392.869 428.456,409.328 409.867,409.325C403.544,409.325 397.195,407.291 391.926,403.357C385.494,398.556 381.317,391.54 380.167,383.6C379.014,375.66 381.021,367.745 385.823,361.316C391.548,353.644 400.331,349.245 409.919,349.245C424.65,349.245 437.455,360.029 439.619,374.97ZM430.039,418.35L428.72,418.946L427.18,419.641L424.054,412.719C425.019,412.312 425.973,411.883 426.898,411.392L430.039,418.35ZM447.974,450.152C449.069,452.579 447.987,455.444 445.561,456.539C443.081,457.658 440.249,456.507 439.173,454.126L426.802,426.721C428.739,425.846 435.92,422.604 435.499,422.793L435.5,422.793L435.601,422.747L447.974,450.152ZM350.922,321.884C353.544,321.884 355.853,320.054 356.542,317.43C357.338,314.377 360.796,312.162 364.759,312.162C368.743,312.162 372.214,314.379 373.01,317.433C373.699,320.054 376.007,321.884 378.63,321.884L390.825,321.884L390.825,334.375L338.727,334.375C338.727,333.986 338.727,321.465 338.727,321.884L350.922,321.884ZM393.973,315.588L379.032,315.588C377.4,309.85 371.571,305.866 364.759,305.866C357.965,305.866 352.152,309.852 350.516,315.588L335.579,315.588C333.839,315.588 332.431,316.998 332.431,318.736L332.431,324.979L317.585,324.979C315.845,324.979 314.437,326.388 314.437,328.127L314.437,459.438C314.437,461.176 315.845,462.586 317.585,462.586L411.969,462.586C413.709,462.586 415.117,461.176 415.117,459.438L415.117,415.208C416.1,415.068 417.08,414.915 418.04,414.697L421.443,422.232L421.343,422.277C419.756,422.993 419.052,424.858 419.769,426.442L433.436,456.716C435.923,462.234 442.481,464.837 448.15,462.278C453.738,459.756 456.235,453.154 453.711,447.562L440.043,417.288C439.702,416.527 439.068,415.933 438.288,415.638C437.507,415.346 436.64,415.372 435.881,415.714L435.778,415.76L432.233,407.91C442.986,399.468 447.668,386.576 445.85,374.066C443.461,357.587 430.491,345.541 415.117,343.337L415.117,328.127C415.117,326.388 413.709,324.979 411.969,324.979L397.121,324.979L397.121,318.736C397.121,316.998 395.713,315.588 393.973,315.588Z" style="fill:white;fill-rule:nonzero;"/>
            </g>
            <g transform="matrix(0.174961,0,0,0.174961,133.217,59.9677)">
                <path d="M364.777,322.141C365.946,322.141 366.899,323.093 366.899,324.262C366.899,325.432 365.946,326.383 364.777,326.383C363.606,326.383 362.653,325.432 362.653,324.262C362.653,323.093 363.606,322.141 364.777,322.141ZM364.777,332.679C369.419,332.679 373.195,328.903 373.195,324.262C373.195,319.622 369.419,315.845 364.777,315.845C360.135,315.845 356.357,319.622 356.357,324.262C356.357,328.903 360.135,332.679 364.777,332.679Z" style="fill:white;fill-rule:nonzero;"/>
            </g>
            <g transform="matrix(0.174961,0,0,0.174961,133.217,59.9677)">
                <path d="M353.498,377.351L333.119,377.351L333.119,356.97L353.498,356.97L353.498,377.351ZM356.646,350.674L329.971,350.674C328.231,350.674 326.823,352.084 326.823,353.822L326.823,380.499C326.823,382.237 328.231,383.647 329.971,383.647L356.646,383.647C358.386,383.647 359.794,382.237 359.794,380.499L359.794,353.822C359.794,352.084 358.386,350.674 356.646,350.674Z" style="fill:white;fill-rule:nonzero;"/>
            </g>
            <g transform="matrix(0.174961,0,0,0.174961,133.217,59.9677)">
                <path d="M353.498,415.028L333.119,415.028L333.119,394.646L353.498,394.646L353.498,415.028ZM356.646,388.35L329.971,388.35C328.231,388.35 326.823,389.76 326.823,391.498L326.823,418.176C326.823,419.914 328.231,421.324 329.971,421.324L356.646,421.324C358.386,421.324 359.794,419.914 359.794,418.176L359.794,391.498C359.794,389.76 358.386,388.35 356.646,388.35Z" style="fill:white;fill-rule:nonzero;"/>
            </g>
            <g transform="matrix(0.174961,0,0,0.174961,133.217,59.9677)">
                <path d="M335.8,374.67C337.03,375.9 339.022,375.9 340.251,374.67L343.309,371.612L346.366,374.67C347.596,375.9 349.588,375.9 350.817,374.67C352.047,373.442 352.047,371.448 350.817,370.218L347.76,367.16L350.817,364.102C352.047,362.873 352.047,360.879 350.817,359.651C349.588,358.421 347.596,358.421 346.366,359.651L343.309,362.709L340.251,359.651C339.022,358.421 337.03,358.421 335.8,359.651C334.57,360.879 334.57,362.873 335.8,364.102L338.858,367.16L335.8,370.218C334.57,371.448 334.57,373.442 335.8,374.67Z" style="fill:white;fill-rule:nonzero;"/>
            </g>
            <g transform="matrix(0.174961,0,0,0.174961,133.217,59.9677)">
                <path d="M339.142,411.008C339.744,411.559 340.507,411.832 341.266,411.832C342.071,411.832 342.88,411.523 343.492,410.91L351.186,403.215C352.416,401.986 352.416,399.994 351.186,398.764C349.957,397.534 347.965,397.534 346.735,398.764L341.168,404.33L339.781,403.062C338.496,401.89 336.507,401.976 335.333,403.261C334.161,404.545 334.251,406.537 335.533,407.71L339.142,411.008Z" style="fill:white;fill-rule:nonzero;"/>
            </g>
        </g>
    </g>
</svg>
