<?xml version="1.0" encoding="UTF-8" standalone="no"?>
<!DOCTYPE svg PUBLIC "-//W3C//DTD SVG 1.1//EN" "http://www.w3.org/Graphics/SVG/1.1/DTD/svg11.dtd">
<svg width="100%" height="100%" viewBox="0 0 66 66" version="1.1" xmlns="http://www.w3.org/2000/svg" xmlns:xlink="http://www.w3.org/1999/xlink" xml:space="preserve" xmlns:serif="http://www.serif.com/" style="fill-rule:evenodd;clip-rule:evenodd;stroke-linejoin:round;stroke-miterlimit:2;">
    <g transform="matrix(1,0,0,1,-257.81,-69.1229)">
        <g id="Artboard1" transform="matrix(1.41117,0,0,1.41117,7.56429,-77.7551)">
            <rect x="177.332" y="104.082" width="46.34" height="46.34" style="fill:none;"/>
            <g transform="matrix(0.768403,0,0,0.768403,179.84,103.955)">
                <path d="M56.43,4.389C56.43,2.396 54.811,0.778 52.818,0.778L0.96,0.778C-1.034,0.778 -2.652,2.396 -2.652,4.389L-2.652,56.248C-2.652,58.241 -1.034,59.859 0.96,59.859L52.818,59.859C54.811,59.859 56.43,58.241 56.43,56.248L56.43,4.389Z" style="fill:rgb(42,147,94);"/>
            </g>
            <g transform="matrix(0.717087,0,0,0.717087,-295.428,-552.311)">
                <path d="M694.257,956.409C695.219,956.811 696.181,957.211 697.143,957.612C696.59,958.179 696.037,958.746 695.484,959.313C695.062,959.138 694.639,958.962 694.217,958.786C694.23,957.994 694.244,957.201 694.257,956.409ZM701.771,936.94C702.059,936.251 702.346,935.562 702.633,934.872C703.935,935.414 705.236,935.957 706.537,936.499C704.046,942.477 701.556,948.454 699.065,954.432C698.778,955.121 698.491,955.811 698.204,956.5C696.902,955.958 695.601,955.415 694.299,954.873C696.79,948.896 699.281,942.918 701.771,936.94ZM706.897,935.35C705.653,934.831 704.409,934.313 703.165,933.794C704.372,932.211 707.068,933.35 706.897,935.35ZM706.658,961.888L694.64,961.888C695.94,960.554 697.24,959.221 698.541,957.887C698.609,957.886 698.673,957.87 698.732,957.846C698.741,957.843 698.75,957.839 698.758,957.836C698.763,957.834 698.768,957.832 698.773,957.829C698.9,957.778 699.012,957.679 699.08,957.515C701.648,951.353 704.215,945.19 706.783,939.028C707.147,938.154 707.511,937.28 707.875,936.406C707.903,936.348 707.918,936.292 707.927,936.237C708.429,934.585 707.764,932.77 706.09,932.072C704.427,931.38 702.449,932.195 701.756,933.857C699.189,940.02 696.622,946.182 694.054,952.344C693.69,953.218 693.326,954.092 692.961,954.966C692.871,955.184 692.926,955.433 693.078,955.601C693.069,956.098 693.061,956.595 693.052,957.092C693.048,957.327 693.044,957.563 693.041,957.799C693.018,959.162 692.995,960.525 692.972,961.888L675.727,961.888C674.876,961.888 674.875,963.519 675.727,963.519L706.658,963.519C707.509,963.519 707.51,961.888 706.658,961.888Z" style="fill:white;fill-rule:nonzero;"/>
            </g>
        </g>
    </g>
</svg>
