<?xml version="1.0" encoding="UTF-8" standalone="no"?>
<!DOCTYPE svg PUBLIC "-//W3C//DTD SVG 1.1//EN" "http://www.w3.org/Graphics/SVG/1.1/DTD/svg11.dtd">
<svg width="100%" height="100%" viewBox="0 0 66 66" version="1.1" xmlns="http://www.w3.org/2000/svg" xmlns:xlink="http://www.w3.org/1999/xlink" xml:space="preserve" xmlns:serif="http://www.serif.com/" style="fill-rule:evenodd;clip-rule:evenodd;stroke-linejoin:round;stroke-miterlimit:2;">
    <g transform="matrix(1,0,0,1,-120.685,-137.498)">
        <g id="Artboard1" transform="matrix(1.41117,0,0,1.41117,-129.561,-9.37948)">
            <rect x="177.332" y="104.082" width="46.34" height="46.34" style="fill:none;"/>
            <g transform="matrix(0.768403,0,0,0.768403,179.84,103.955)">
                <path d="M56.43,4.389C56.43,2.396 54.811,0.778 52.818,0.778L0.96,0.778C-1.034,0.778 -2.652,2.396 -2.652,4.389L-2.652,56.248C-2.652,58.241 -1.034,59.859 0.96,59.859L52.818,59.859C54.811,59.859 56.43,58.241 56.43,56.248L56.43,4.389Z" style="fill:rgb(255,188,0);"/>
            </g>
            <g id="New-Message" serif:id="New Message" transform="matrix(0.51243,1.89486e-32,6.31619e-33,0.51243,140.65,-76.0931)">
                <path d="M116.8,377.8C105.2,377.8 95.8,385.5 95.8,394.9C95.8,400.6 99.1,405.5 104.4,408.6C103.7,412.1 99.9,415.8 99.9,415.8C99.9,415.8 106.4,416.6 111.2,411.8C111.2,411.8 116.8,412 118.8,411.9C130.4,411.6 137.8,404.2 137.8,394.8C137.8,385.4 128.4,377.8 116.8,377.8ZM118.8,409.9C117,409.9 110.4,409.8 110.3,409.7C109.5,411 105.4,414 103.4,413.8C104.8,412.3 106.5,408.2 106.4,407.4C105.7,407 105.1,406.6 104.4,406.2C100.3,403.4 97.7,399.3 97.7,394.7C97.7,386.4 106.2,379.6 116.7,379.6C127.2,379.6 135.7,386.4 135.7,394.7C135.7,403 129.3,409.9 118.8,409.9Z" style="fill:white;fill-rule:nonzero;"/>
            </g>
        </g>
    </g>
</svg>
