<?xml version="1.0" encoding="UTF-8" standalone="no"?>
<!DOCTYPE svg PUBLIC "-//W3C//DTD SVG 1.1//EN" "http://www.w3.org/Graphics/SVG/1.1/DTD/svg11.dtd">
<svg width="100%" height="100%" viewBox="0 0 66 66" version="1.1" xmlns="http://www.w3.org/2000/svg" xmlns:xlink="http://www.w3.org/1999/xlink" xml:space="preserve" xmlns:serif="http://www.serif.com/" style="fill-rule:evenodd;clip-rule:evenodd;stroke-linejoin:round;stroke-miterlimit:2;">
    <g transform="matrix(1,0,0,1,-190.472,0)">
        <g id="Artboard1" transform="matrix(1.41117,0,0,1.41117,-59.7741,-146.878)">
            <rect x="177.332" y="104.082" width="46.34" height="46.34" style="fill:none;"/>
            <g transform="matrix(0.768403,0,0,0.768403,179.84,103.955)">
                <path d="M56.43,4.389C56.43,2.396 54.811,0.778 52.818,0.778L0.96,0.778C-1.034,0.778 -2.652,2.396 -2.652,4.389L-2.652,56.248C-2.652,58.241 -1.034,59.859 0.96,59.859L52.818,59.859C54.811,59.859 56.43,58.241 56.43,56.248L56.43,4.389Z" style="fill:rgb(0,113,255);"/>
            </g>
            <g transform="matrix(1,0,0,1,10.1198,9.24674)">
                <g transform="matrix(0.70863,0,0,0.70863,177.332,104.082)">
                    <path d="M18.416,2.887C9.174,2.887 1.655,10.406 1.655,19.648C1.655,28.89 9.174,36.409 18.416,36.409C27.658,36.409 35.177,28.89 35.177,19.648C35.177,10.406 27.658,2.887 18.416,2.887ZM18.416,37.621C8.506,37.621 0.443,29.558 0.443,19.648C0.443,9.738 8.506,1.675 18.416,1.675C28.326,1.675 36.389,9.738 36.389,19.648C36.389,29.558 28.326,37.621 18.416,37.621Z" style="fill:white;fill-rule:nonzero;"/>
                </g>
                <g transform="matrix(0.70863,0,0,0.70863,177.332,104.082)">
                    <path d="M18.416,2.887C9.174,2.887 1.655,10.406 1.655,19.648C1.655,28.89 9.174,36.409 18.416,36.409C27.658,36.409 35.177,28.89 35.177,19.648C35.177,10.406 27.658,2.887 18.416,2.887ZM18.416,37.621C8.506,37.621 0.443,29.558 0.443,19.648C0.443,9.738 8.506,1.675 18.416,1.675C28.326,1.675 36.389,9.738 36.389,19.648C36.389,29.558 28.326,37.621 18.416,37.621Z" style="fill:white;fill-rule:nonzero;"/>
                </g>
                <g transform="matrix(0.70863,0,0,0.70863,177.332,104.081)">
                    <path d="M14.122,35.849C16.932,36.593 19.902,36.593 22.71,35.849C25.005,32.212 26.37,26.182 26.37,19.648C26.37,13.115 25.005,7.084 22.71,3.447C19.901,2.704 16.932,2.704 14.122,3.447C11.827,7.084 10.462,13.115 10.462,19.648C10.462,26.182 11.827,32.212 14.122,35.849ZM18.416,37.621C16.784,37.621 15.155,37.397 13.575,36.956L13.357,36.895L13.232,36.704C10.738,32.9 9.25,26.524 9.25,19.648C9.25,12.772 10.738,6.396 13.232,2.592L13.357,2.401L13.575,2.34C16.736,1.458 20.096,1.458 23.257,2.34L23.476,2.401L23.601,2.592C26.094,6.396 27.582,12.772 27.582,19.648C27.582,26.524 26.093,32.901 23.6,36.704L23.475,36.895L23.257,36.956C21.676,37.397 20.048,37.621 18.416,37.621Z" style="fill:white;fill-rule:nonzero;"/>
                </g>
                <g transform="matrix(0.70863,0,0,0.70863,177.332,104.082)">
                    <rect x="17.81" y="2.281" width="1.212" height="34.734" style="fill:white;fill-rule:nonzero;"/>
                </g>
                <g transform="matrix(0.70863,0,0,0.70863,177.332,104.082)">
                    <rect x="1.049" y="19.042" width="34.734" height="1.212" style="fill:white;fill-rule:nonzero;"/>
                </g>
                <g transform="matrix(0.70863,0,0,0.70863,177.332,104.082)">
                    <path d="M2.215,23.942C5.853,26.237 11.883,27.602 18.416,27.602C24.95,27.602 30.98,26.237 34.617,23.942C34.989,22.537 35.177,21.094 35.177,19.648C35.177,18.203 34.989,16.759 34.617,15.354C30.98,13.059 24.95,11.694 18.416,11.694C11.883,11.694 5.853,13.059 2.215,15.354C1.843,16.759 1.655,18.203 1.655,19.648C1.655,21.094 1.843,22.537 2.215,23.942ZM18.416,28.814C11.54,28.814 5.164,27.326 1.36,24.832L1.169,24.708L1.108,24.489C0.667,22.909 0.443,21.28 0.443,19.648C0.443,18.016 0.667,16.388 1.108,14.807L1.169,14.588L1.36,14.464C5.164,11.971 11.54,10.482 18.416,10.482C25.292,10.482 31.668,11.971 35.473,14.464L35.663,14.588L35.724,14.807C36.165,16.388 36.389,18.016 36.389,19.648C36.389,21.28 36.165,22.909 35.724,24.489L35.663,24.708L35.473,24.832C31.668,27.326 25.292,28.814 18.416,28.814Z" style="fill:white;fill-rule:nonzero;"/>
                </g>
            </g>
        </g>
    </g>
</svg>
