<?xml version="1.0" encoding="UTF-8" standalone="no"?>
<!DOCTYPE svg PUBLIC "-//W3C//DTD SVG 1.1//EN" "http://www.w3.org/Graphics/SVG/1.1/DTD/svg11.dtd">
<svg width="100%" height="100%" viewBox="0 0 24 24" version="1.1" xmlns="http://www.w3.org/2000/svg" xmlns:xlink="http://www.w3.org/1999/xlink" xml:space="preserve" xmlns:serif="http://www.serif.com/" style="fill-rule:evenodd;clip-rule:evenodd;stroke-linejoin:round;stroke-miterlimit:2;">
    <g transform="matrix(1,0,0,1,-7262,-2714)">
        <g id="Artboard17" transform="matrix(0.4,0,0,0.4,4292.8,1625.6)">
            <rect x="7423" y="2721" width="60" height="60" style="fill:none;"/>
            <g transform="matrix(1.7049,0,0,1.7049,7260.77,1905.82)">
                <path d="M105.956,494.329L105.954,490.456L112.766,486.439L116.035,488.249L119.457,486.439L112.767,482.685L102.547,488.246L102.547,496.283L99.15,498.139L99.15,486.445L112.766,478.714L119.457,482.687L126.348,486.439L119.457,490.456L116.035,492.178L112.766,490.456L109.266,492.447L119.47,497.174L119.47,501.02L112.732,505.037L109.463,503.227L106.041,505.037L112.731,508.791L122.951,503.23L122.951,495.193L126.348,493.337L126.348,505.03L112.731,512.762L106.041,508.789L99.15,505.037L106.041,501.02L109.463,499.298L112.731,501.02L116.127,499.082L105.956,494.329Z" style="fill:rgb(71,71,71);"/>
            </g>
        </g>
    </g>
</svg>
