<?xml version="1.0" encoding="UTF-8" standalone="no"?>
<!DOCTYPE svg PUBLIC "-//W3C//DTD SVG 1.1//EN" "http://www.w3.org/Graphics/SVG/1.1/DTD/svg11.dtd">
<svg width="100%" height="100%" viewBox="0 0 24 24" version="1.1" xmlns="http://www.w3.org/2000/svg" xmlns:xlink="http://www.w3.org/1999/xlink" xml:space="preserve" xmlns:serif="http://www.serif.com/" style="fill-rule:evenodd;clip-rule:evenodd;stroke-linejoin:round;stroke-miterlimit:2;">
    <g transform="matrix(1,0,0,1,-7289,-2796)">
        <g id="Artboard17" transform="matrix(0.4,0,0,0.4,4319.8,1707.6)">
            <rect x="7423" y="2721" width="60" height="60" style="fill:none;"/>
            <g id="New-Message" serif:id="New Message" transform="matrix(1.38842,5.13408e-32,1.71136e-32,1.38842,7290.83,2200.04)">
                <path d="M116.8,377.8C105.2,377.8 95.8,385.5 95.8,394.9C95.8,400.6 99.1,405.5 104.4,408.6C103.7,412.1 99.9,415.8 99.9,415.8C99.9,415.8 106.4,416.6 111.2,411.8C111.2,411.8 116.8,412 118.8,411.9C130.4,411.6 137.8,404.2 137.8,394.8C137.8,385.4 128.4,377.8 116.8,377.8ZM118.8,409.9C117,409.9 110.4,409.8 110.3,409.7C109.5,411 105.4,414 103.4,413.8C104.8,412.3 106.5,408.2 106.4,407.4C105.7,407 105.1,406.6 104.4,406.2C100.3,403.4 97.7,399.3 97.7,394.7C97.7,386.4 106.2,379.6 116.7,379.6C127.2,379.6 135.7,386.4 135.7,394.7C135.7,403 129.3,409.9 118.8,409.9Z" style="fill:rgb(71,71,71);fill-rule:nonzero;"/>
            </g>
        </g>
    </g>
</svg>
