<?xml version="1.0" encoding="UTF-8" standalone="no"?>
<!DOCTYPE svg PUBLIC "-//W3C//DTD SVG 1.1//EN" "http://www.w3.org/Graphics/SVG/1.1/DTD/svg11.dtd">
<svg width="100%" height="100%" viewBox="0 0 24 24" version="1.1" xmlns="http://www.w3.org/2000/svg" xmlns:xlink="http://www.w3.org/1999/xlink" xml:space="preserve" xmlns:serif="http://www.serif.com/" style="fill-rule:evenodd;clip-rule:evenodd;stroke-linejoin:round;stroke-miterlimit:2;">
    <g transform="matrix(1,0,0,1,-7342,-2844)">
        <g id="Artboard17" transform="matrix(0.4,0,0,0.4,4372.8,1755.6)">
            <rect x="7423" y="2721" width="60" height="60" style="fill:none;"/>
            <g transform="matrix(2.5,0,0,2.5,-10932,-4389)">
                <path d="M7346.43,2854.79C7346.4,2854.36 7346.51,2853.93 7346.78,2853.57C7347.22,2853.01 7347.99,2852.72 7348.74,2852.72C7349.73,2852.72 7350.76,2853.23 7350.93,2854.41L7350.01,2854.45C7349.88,2853.87 7349.25,2853.62 7348.69,2853.63C7348.26,2853.64 7347.78,2853.78 7347.52,2854.12C7347.39,2854.28 7347.35,2854.49 7347.36,2854.72C7347.41,2855.38 7348.14,2855.46 7348.83,2855.53C7349.71,2855.64 7350.81,2855.87 7351.06,2856.9C7351.08,2857.04 7351.1,2857.19 7351.1,2857.32C7351.1,2858.57 7349.87,2859.28 7348.71,2859.28C7347.71,2859.28 7346.51,2858.69 7346.39,2857.54L7346.38,2857.37L7347.32,2857.35L7347.33,2857.49L7347.33,2857.45C7347.39,2858.05 7348.12,2858.36 7348.72,2858.36C7349.41,2858.36 7350.16,2857.97 7350.16,2857.31C7350.16,2857.25 7350.15,2857.17 7350.14,2857.09C7350.03,2856.6 7349.36,2856.52 7348.72,2856.45C7347.72,2856.35 7346.54,2856.13 7346.43,2854.79Z" style="fill:rgb(71,71,71);"/>
            </g>
            <g transform="matrix(2.5,0,0,2.5,-10932,-4389)">
                <path d="M7356.95,2854.79C7356.92,2854.36 7357.03,2853.93 7357.3,2853.57C7357.74,2853.01 7358.51,2852.72 7359.26,2852.72C7360.25,2852.72 7361.28,2853.23 7361.45,2854.41L7360.53,2854.45C7360.4,2853.87 7359.77,2853.62 7359.21,2853.63C7358.78,2853.64 7358.3,2853.78 7358.04,2854.12C7357.91,2854.28 7357.86,2854.49 7357.88,2854.72C7357.93,2855.38 7358.66,2855.46 7359.35,2855.53C7360.23,2855.64 7361.33,2855.87 7361.57,2856.9C7361.6,2857.04 7361.62,2857.19 7361.62,2857.32C7361.62,2858.57 7360.39,2859.28 7359.23,2859.28C7358.23,2859.28 7357.03,2858.69 7356.91,2857.54L7356.9,2857.37L7357.84,2857.35L7357.85,2857.49L7357.85,2857.45C7357.91,2858.05 7358.64,2858.36 7359.24,2858.36C7359.93,2858.36 7360.68,2857.97 7360.68,2857.31C7360.68,2857.25 7360.67,2857.17 7360.65,2857.09C7360.54,2856.6 7359.88,2856.52 7359.24,2856.45C7358.23,2856.35 7357.06,2856.13 7356.95,2854.79Z" style="fill:rgb(71,71,71);"/>
            </g>
            <g transform="matrix(2.5,0,0,2.5,-10932,-4389)">
                <path d="M7352.52,2859.23L7352.52,2854.72L7355.63,2859.23L7356.37,2859.23L7356.37,2852.78L7355.45,2852.78L7355.45,2857.32L7352.31,2852.78L7351.59,2852.77L7351.59,2859.23L7352.52,2859.23Z" style="fill:rgb(71,71,71);"/>
            </g>
            <g transform="matrix(2.5,0,0,2.5,-10932,-4389)">
                <path d="M7346.43,2854.79L7346.43,2854.8L7346.43,2854.79L7346.43,2854.79Z" style="fill:rgb(71,71,71);"/>
            </g>
            <g transform="matrix(2.5,0,0,2.5,-10932,-4389)">
                <path d="M7356.95,2854.79L7356.95,2854.8L7356.95,2854.79L7356.95,2854.79Z" style="fill:rgb(71,71,71);"/>
            </g>
        </g>
    </g>
</svg>
