<?xml version="1.0" encoding="UTF-8" standalone="no"?>
<!DOCTYPE svg PUBLIC "-//W3C//DTD SVG 1.1//EN" "http://www.w3.org/Graphics/SVG/1.1/DTD/svg11.dtd">
<svg width="100%" height="100%" viewBox="0 0 24 24" version="1.1" xmlns="http://www.w3.org/2000/svg" xmlns:xlink="http://www.w3.org/1999/xlink" xml:space="preserve" xmlns:serif="http://www.serif.com/" style="fill-rule:evenodd;clip-rule:evenodd;stroke-linejoin:round;stroke-miterlimit:2;">
    <g transform="matrix(1,0,0,1,-7382,-2844)">
        <g id="Artboard17" transform="matrix(0.4,0,0,0.4,4412.8,1755.6)">
            <rect x="7423" y="2721" width="60" height="60" style="fill:none;"/>
            <g transform="matrix(2.5,0,0,2.5,-11032,-4389)">
                <path d="M7397.2,2859.09L7397.85,2859.09L7399.87,2852.98L7398.95,2852.98C7398.5,2854.36 7397.97,2855.9 7397.5,2857.35L7396.51,2854.52L7395.81,2854.52L7394.81,2857.36L7393.36,2852.98L7392.45,2852.98L7394.47,2859.09L7395.12,2859.09C7395.43,2858.17 7395.81,2857.14 7396.15,2856.15L7397.2,2859.09Z" style="fill:rgb(71,71,71);"/>
            </g>
            <g transform="matrix(2.5,0,0,2.5,-11032,-4389)">
                <path d="M7400,2854.86C7399.97,2854.46 7400.07,2854.05 7400.33,2853.72C7400.74,2853.19 7401.47,2852.91 7402.17,2852.91C7403.11,2852.91 7404.08,2853.4 7404.23,2854.51L7403.36,2854.54C7403.24,2853.99 7402.65,2853.76 7402.13,2853.77C7401.72,2853.78 7401.27,2853.92 7401.03,2854.23C7400.9,2854.38 7400.86,2854.58 7400.88,2854.79C7400.92,2855.41 7401.61,2855.49 7402.26,2855.55C7403.09,2855.66 7404.12,2855.87 7404.35,2856.85C7404.38,2856.97 7404.4,2857.12 7404.4,2857.24C7404.4,2858.41 7403.24,2859.09 7402.14,2859.09C7401.21,2859.09 7400.07,2858.53 7399.96,2857.45L7399.95,2857.29L7400.84,2857.27L7400.84,2857.4L7400.84,2857.37C7400.9,2857.93 7401.59,2858.22 7402.15,2858.22C7402.8,2858.22 7403.51,2857.86 7403.51,2857.24C7403.51,2857.17 7403.5,2857.11 7403.49,2857.03C7403.38,2856.57 7402.76,2856.49 7402.15,2856.43C7401.21,2856.33 7400.1,2856.12 7400,2854.86Z" style="fill:rgb(71,71,71);"/>
            </g>
            <g transform="matrix(2.5,0,0,2.5,-11032,-4389)">
                <path d="M7384.48,2859.04L7384.48,2854.8L7387.41,2859.04L7388.1,2859.04L7388.1,2852.97L7387.23,2852.97L7387.23,2857.24L7384.28,2852.97L7383.6,2852.96L7383.6,2859.04L7384.48,2859.04Z" style="fill:rgb(71,71,71);"/>
            </g>
            <g transform="matrix(2.5,0,0,2.5,-11032,-4389)">
                <path d="M7389.55,2856.45L7392.3,2856.45L7392.3,2855.56L7389.55,2855.56L7389.55,2853.86L7392.36,2853.86L7392.36,2852.98L7388.66,2852.98L7388.66,2859.04L7392.37,2859.04L7392.37,2858.16L7389.55,2858.16L7389.55,2856.45Z" style="fill:rgb(71,71,71);"/>
            </g>
            <g transform="matrix(2.5,0,0,2.5,-11032,-4389)">
                <path d="M7400,2854.86L7400,2854.87L7400,2854.86L7400,2854.86Z" style="fill:rgb(71,71,71);"/>
            </g>
        </g>
    </g>
</svg>
