<?xml version="1.0" encoding="UTF-8" standalone="no"?>
<!DOCTYPE svg PUBLIC "-//W3C//DTD SVG 1.1//EN" "http://www.w3.org/Graphics/SVG/1.1/DTD/svg11.dtd">
<svg width="100%" height="100%" viewBox="0 0 24 24" version="1.1" xmlns="http://www.w3.org/2000/svg" xmlns:xlink="http://www.w3.org/1999/xlink" xml:space="preserve" xmlns:serif="http://www.serif.com/" style="fill-rule:evenodd;clip-rule:evenodd;stroke-linejoin:round;stroke-miterlimit:2;">
    <g transform="matrix(1,0,0,1,-7287,-2714)">
        <g id="Artboard17" transform="matrix(0.4,0,0,0.4,4317.8,1625.6)">
            <rect x="7423" y="2721" width="60" height="60" style="fill:none;"/>
            <g transform="matrix(0.61074,0,0,1.87043,9573.42,-1029.21)">
                <g transform="matrix(2.32573,0,0,0.759406,-4367.81,1935.22)">
                    <path d="M374.061,129.841C375.814,129.959 377.55,129.325 378.802,128.072C380.51,126.364 381.05,123.802 380.178,121.544C380.091,121.321 380.145,121.067 380.315,120.897L393.115,108.098C393.285,107.929 393.539,107.875 393.761,107.961C396.02,108.833 398.582,108.293 400.29,106.585C401.542,105.333 402.175,103.589 402.057,101.845L400.756,103.146C399.192,104.71 396.647,104.711 395.083,103.146C394.325,102.389 393.908,101.382 393.908,100.311C393.908,99.239 394.325,98.232 395.083,97.474L396.384,96.172C394.646,96.056 392.896,96.688 391.644,97.941C389.936,99.649 389.396,102.21 390.268,104.468C390.354,104.692 390.301,104.946 390.132,105.115L377.332,117.914C377.162,118.084 376.91,118.139 376.685,118.051C374.428,117.18 371.865,117.719 370.157,119.427C368.905,120.679 368.271,122.423 368.389,124.168L369.691,122.866C371.256,121.302 373.799,121.302 375.364,122.866C376.122,123.623 376.539,124.631 376.539,125.702C376.539,126.774 376.122,127.781 375.364,128.538L374.061,129.841ZM374.471,131.066C373.862,131.066 373.249,130.99 372.646,130.835C372.435,130.781 372.27,130.618 372.214,130.408C372.156,130.198 372.215,129.974 372.369,129.82L374.507,127.682C375.036,127.153 375.327,126.45 375.327,125.702C375.327,124.954 375.036,124.251 374.507,123.723C373.415,122.631 371.64,122.631 370.548,123.723L368.41,125.86C368.256,126.014 368.031,126.074 367.822,126.017C367.612,125.959 367.449,125.794 367.394,125.583C366.749,123.078 367.479,120.391 369.3,118.57C371.253,116.618 374.135,115.938 376.746,116.788L389.004,104.529C388.156,101.919 388.836,99.036 390.787,97.084C392.609,95.263 395.298,94.534 397.8,95.178C398.011,95.232 398.176,95.395 398.233,95.605C398.291,95.815 398.231,96.039 398.077,96.193L395.939,98.331C395.41,98.86 395.119,99.563 395.119,100.311C395.119,101.058 395.41,101.761 395.939,102.29C397.031,103.382 398.806,103.382 399.899,102.29L402.037,100.153C402.19,99.999 402.415,99.939 402.625,99.996C402.834,100.054 402.998,100.219 403.051,100.43C403.697,102.933 402.967,105.621 401.146,107.442C399.194,109.394 396.31,110.073 393.701,109.225L381.442,121.484C382.291,124.093 381.612,126.977 379.66,128.929C378.276,130.312 376.393,131.066 374.471,131.066Z" style="fill:rgb(71,71,71);fill-rule:nonzero;"/>
                </g>
                <g transform="matrix(2.32573,0,0,0.759406,-4367.81,1935.22)">
                    <path d="M378.328,97.655L380.782,100.11L382.07,98.823L379.614,96.368L378.328,97.655ZM380.782,101.572C380.628,101.572 380.472,101.513 380.354,101.394L377.043,98.083C376.806,97.847 376.806,97.463 377.043,97.226L379.186,95.083C379.414,94.856 379.815,94.856 380.043,95.083L383.355,98.394C383.468,98.508 383.532,98.662 383.532,98.823C383.532,98.984 383.468,99.138 383.355,99.251L381.211,101.394C381.092,101.513 380.937,101.572 380.782,101.572Z" style="fill:rgb(71,71,71);fill-rule:nonzero;"/>
                </g>
                <g transform="matrix(2.32573,0,0,0.759406,-4367.81,1935.22)">
                    <path d="M378.067,99.109L377.926,99.249C377.024,100.152 376.088,100.918 375.143,101.527C373.599,102.523 369.189,105.98 370.518,112.205C370.705,110.987 371.016,109.636 371.538,108.664C371.92,107.955 372.543,107.489 373.249,107.385C373.894,107.288 374.543,107.515 375.029,108.003L377.042,110.015L380.174,106.883L378.231,104.939C377.498,104.205 377.392,103.054 377.981,102.2L379.277,100.318L378.067,99.109ZM370.853,115.766C370.616,115.766 370.395,115.626 370.298,115.403C367.228,108.393 370.45,103.113 374.487,100.509C375.359,99.947 376.228,99.235 377.07,98.393L377.639,97.823C377.866,97.597 378.268,97.596 378.496,97.823L380.491,99.818C380.697,100.024 380.727,100.349 380.561,100.59L378.978,102.887C378.722,103.259 378.768,103.762 379.088,104.082L381.46,106.454C381.696,106.691 381.696,107.074 381.46,107.311L377.47,111.3C377.234,111.537 376.85,111.537 376.614,111.3L374.173,108.859C373.953,108.64 373.696,108.547 373.425,108.583C373.102,108.631 372.803,108.87 372.605,109.238C371.567,111.171 371.46,115.135 371.459,115.174C371.452,115.458 371.249,115.699 370.97,115.754C370.93,115.762 370.891,115.766 370.853,115.766Z" style="fill:rgb(71,71,71);fill-rule:nonzero;"/>
                </g>
                <g transform="matrix(2.32573,0,0,0.759406,-4367.81,1935.22)">
                    <path d="M378.476,110.294L380.858,112.675L382.947,110.586L380.565,108.205L378.476,110.294ZM380.858,114.138C380.697,114.138 380.544,114.074 380.429,113.96L377.192,110.723C376.955,110.486 376.955,110.102 377.192,109.866L380.136,106.92C380.364,106.693 380.766,106.693 380.994,106.92L384.231,110.158C384.468,110.395 384.468,110.778 384.231,111.015L381.286,113.96C381.173,114.074 381.019,114.138 380.858,114.138Z" style="fill:rgb(71,71,71);fill-rule:nonzero;"/>
                </g>
                <g transform="matrix(2.32573,0,0,0.759406,-4367.81,1935.22)">
                    <path d="M385.554,117.371L397.646,129.463C398.221,130.038 399.158,130.039 399.735,129.463C400.31,128.888 400.31,127.95 399.735,127.374L387.643,115.283L385.554,117.371ZM398.69,131.107C397.972,131.107 397.297,130.828 396.79,130.32L384.269,117.8C384.156,117.686 384.091,117.532 384.091,117.371C384.091,117.211 384.156,117.057 384.269,116.943L387.215,113.998C387.452,113.761 387.835,113.761 388.072,113.998L400.591,126.518C401.639,127.566 401.639,129.272 400.591,130.32C400.084,130.828 399.409,131.107 398.69,131.107Z" style="fill:rgb(71,71,71);fill-rule:nonzero;"/>
                </g>
                <g transform="matrix(2.32573,0,0,0.759406,-4367.81,1935.22)">
                    <path d="M387.762,121.042C387.607,121.042 387.452,120.983 387.334,120.864C387.097,120.628 387.097,120.245 387.334,120.008L390.279,117.062C390.515,116.826 390.899,116.826 391.135,117.062C391.373,117.299 391.373,117.683 391.135,117.919L388.19,120.864C388.072,120.983 387.918,121.042 387.762,121.042Z" style="fill:rgb(71,71,71);fill-rule:nonzero;"/>
                </g>
            </g>
        </g>
    </g>
</svg>
