<?xml version="1.0" encoding="UTF-8" standalone="no"?>
<!DOCTYPE svg PUBLIC "-//W3C//DTD SVG 1.1//EN" "http://www.w3.org/Graphics/SVG/1.1/DTD/svg11.dtd">
<svg width="100%" height="100%" viewBox="0 0 24 24" version="1.1" xmlns="http://www.w3.org/2000/svg" xmlns:xlink="http://www.w3.org/1999/xlink" xml:space="preserve" xmlns:serif="http://www.serif.com/" style="fill-rule:evenodd;clip-rule:evenodd;stroke-linejoin:round;stroke-miterlimit:2;">
    <g transform="matrix(1,0,0,1,-7313,-2714)">
        <g id="Artboard17" transform="matrix(0.4,0,0,0.4,4343.8,1625.6)">
            <rect x="7423" y="2721" width="60" height="60" style="fill:none;"/>
            <g transform="matrix(2.00275,0,0,2.00275,7050.18,2494.99)">
                <g transform="matrix(0.750437,0,0,0.750437,187.312,78.0311)">
                    <path d="M33.663,71.864L3.17,71.864C2.167,71.864 1.352,71.049 1.352,70.047L1.352,51.468C1.352,50.466 2.167,49.65 3.17,49.65L6.893,49.65L6.893,50.862L3.17,50.862C2.836,50.862 2.564,51.134 2.564,51.468L2.564,70.047C2.564,70.381 2.836,70.653 3.17,70.653L33.663,70.653C33.997,70.653 34.269,70.381 34.269,70.047L34.269,51.468C34.269,51.134 33.997,50.862 33.663,50.862L20.806,50.862L20.806,49.65L33.663,49.65C34.665,49.65 35.48,50.466 35.48,51.468L35.48,70.047C35.48,71.049 34.665,71.864 33.663,71.864Z" style="fill:rgb(71,71,71);fill-rule:nonzero;"/>
                </g>
                <g transform="matrix(0.750437,0,0,0.750437,187.312,78.0311)">
                    <path d="M9.013,50.862L6.893,50.862C6.558,50.862 6.287,50.591 6.287,50.256C6.287,49.922 6.558,49.65 6.893,49.65L9.013,49.65C9.348,49.65 9.619,49.922 9.619,50.256C9.619,50.591 9.348,50.862 9.013,50.862Z" style="fill:rgb(71,71,71);fill-rule:nonzero;"/>
                </g>
                <g transform="matrix(0.750437,0,0,0.750437,187.312,78.0311)">
                    <path d="M15.461,50.862L12.237,50.862C11.903,50.862 11.632,50.591 11.632,50.256C11.632,49.922 11.903,49.65 12.237,49.65L15.461,49.65C15.796,49.65 16.067,49.922 16.067,50.256C16.067,50.591 15.796,50.862 15.461,50.862Z" style="fill:rgb(71,71,71);fill-rule:nonzero;"/>
                </g>
                <g transform="matrix(0.750437,0,0,0.750437,187.312,78.0311)">
                    <path d="M20.806,50.862L18.685,50.862C18.351,50.862 18.079,50.591 18.079,50.256C18.079,49.922 18.351,49.65 18.685,49.65L20.806,49.65C21.14,49.65 21.411,49.922 21.411,50.256C21.411,50.591 21.14,50.862 20.806,50.862Z" style="fill:rgb(71,71,71);fill-rule:nonzero;"/>
                </g>
                <g transform="matrix(0.750437,0,0,0.750437,187.312,78.0311)">
                    <path d="M8.028,58.044C7.381,58.044 6.855,58.57 6.855,59.218C6.855,59.865 7.381,60.391 8.028,60.391C8.676,60.391 9.202,59.865 9.202,59.218C9.202,58.57 8.676,58.044 8.028,58.044ZM8.028,61.603C6.714,61.603 5.643,60.533 5.643,59.218C5.643,57.902 6.714,56.832 8.028,56.832C9.344,56.832 10.414,57.902 10.414,59.218C10.414,60.533 9.344,61.603 8.028,61.603Z" style="fill:rgb(71,71,71);fill-rule:nonzero;"/>
                </g>
                <g transform="matrix(0.750437,0,0,0.750437,187.312,78.0311)">
                    <path d="M19.026,61.186C18.379,61.186 17.852,61.713 17.852,62.36C17.852,63.008 18.379,63.534 19.026,63.534C19.674,63.534 20.2,63.008 20.2,62.36C20.2,61.713 19.674,61.186 19.026,61.186ZM19.026,64.746C17.711,64.746 16.641,63.676 16.641,62.36C16.641,61.045 17.711,59.975 19.026,59.975C20.341,59.975 21.411,61.045 21.411,62.36C21.411,63.676 20.341,64.746 19.026,64.746Z" style="fill:rgb(71,71,71);fill-rule:nonzero;"/>
                </g>
                <g transform="matrix(0.750437,0,0,0.750437,187.312,78.0311)">
                    <path d="M30.134,55.184C29.487,55.184 28.96,55.711 28.96,56.358C28.96,57.005 29.487,57.532 30.134,57.532C30.781,57.532 31.308,57.005 31.308,56.358C31.308,55.711 30.781,55.184 30.134,55.184ZM30.134,58.744C28.819,58.744 27.749,57.673 27.749,56.358C27.749,55.043 28.819,53.973 30.134,53.973C31.449,53.973 32.519,55.043 32.519,56.358C32.519,57.673 31.449,58.744 30.134,58.744Z" style="fill:rgb(71,71,71);fill-rule:nonzero;"/>
                </g>
                <g transform="matrix(0.750437,0,0,0.750437,187.312,78.0311)">
                    <path d="M17.011,62.918L9.572,59.776L10.044,58.66L17.482,61.802L17.011,62.918Z" style="fill:rgb(71,71,71);fill-rule:nonzero;"/>
                </g>
                <g transform="matrix(0.750437,0,0,0.750437,187.312,78.0311)">
                    <path d="M21.183,62.834L20.428,61.886L27.977,55.884L28.732,56.832L21.183,62.834Z" style="fill:rgb(71,71,71);fill-rule:nonzero;"/>
                </g>
                <g transform="matrix(0.750437,0,0,0.750437,187.312,78.0311)">
                    <path d="M31.913,68.229L27.642,68.229C27.308,68.229 27.036,67.958 27.036,67.623C27.036,67.289 27.308,67.017 27.642,67.017L31.913,67.017C32.248,67.017 32.519,67.289 32.519,67.623C32.519,67.958 32.248,68.229 31.913,68.229Z" style="fill:rgb(71,71,71);fill-rule:nonzero;"/>
                </g>
                <g transform="matrix(0.750437,0,0,0.750437,187.312,78.0311)">
                    <path d="M14.315,68.229L12.194,68.229C11.86,68.229 11.588,67.958 11.588,67.623C11.588,67.289 11.86,67.017 12.194,67.017L14.315,67.017C14.649,67.017 14.92,67.289 14.92,67.623C14.92,67.958 14.649,68.229 14.315,68.229Z" style="fill:rgb(71,71,71);fill-rule:nonzero;"/>
                </g>
                <g transform="matrix(0.750437,0,0,0.750437,187.312,78.0311)">
                    <path d="M21.786,68.229L18.05,68.229C17.716,68.229 17.445,67.958 17.445,67.623C17.445,67.289 17.716,67.017 18.05,67.017L21.786,67.017C22.121,67.017 22.392,67.289 22.392,67.623C22.392,67.958 22.121,68.229 21.786,68.229Z" style="fill:rgb(71,71,71);fill-rule:nonzero;"/>
                </g>
                <g transform="matrix(0.750437,0,0,0.750437,187.312,78.0311)">
                    <path d="M27.642,68.229L25.522,68.229C25.187,68.229 24.916,67.958 24.916,67.623C24.916,67.289 25.187,67.017 25.522,67.017L27.642,67.017C27.977,67.017 28.248,67.289 28.248,67.623C28.248,67.958 27.977,68.229 27.642,68.229Z" style="fill:rgb(71,71,71);fill-rule:nonzero;"/>
                </g>
                <g transform="matrix(0.750437,0,0,0.750437,187.312,78.0311)">
                    <path d="M12.194,68.229L6.249,68.229C5.915,68.229 5.643,67.958 5.643,67.623C5.643,67.289 5.915,67.017 6.249,67.017L12.194,67.017C12.529,67.017 12.8,67.289 12.8,67.623C12.8,67.958 12.529,68.229 12.194,68.229Z" style="fill:rgb(71,71,71);fill-rule:nonzero;"/>
                </g>
                <g transform="matrix(0.750437,0,0,0.750437,187.312,78.0311)">
                    <path d="M17.053,81.86L19.779,81.86L19.779,71.864L17.053,71.864L17.053,81.86ZM20.385,83.072L16.447,83.072C16.112,83.072 15.841,82.801 15.841,82.466L15.841,71.258C15.841,70.924 16.112,70.653 16.447,70.653L20.385,70.653C20.719,70.653 20.991,70.924 20.991,71.258L20.991,82.466C20.991,82.801 20.719,83.072 20.385,83.072Z" style="fill:rgb(71,71,71);fill-rule:nonzero;"/>
                </g>
                <g transform="matrix(0.750437,0,0,0.750437,187.312,78.0311)">
                    <path d="M31.505,83.072L5.075,83.072C4.741,83.072 4.469,82.801 4.469,82.466C4.469,82.132 4.741,81.86 5.075,81.86L31.505,81.86C31.839,81.86 32.11,82.132 32.11,82.466C32.11,82.801 31.839,83.072 31.505,83.072Z" style="fill:rgb(71,71,71);fill-rule:nonzero;"/>
                </g>
            </g>
        </g>
    </g>
</svg>
