<?xml version="1.0" encoding="UTF-8" standalone="no"?>
<!DOCTYPE svg PUBLIC "-//W3C//DTD SVG 1.1//EN" "http://www.w3.org/Graphics/SVG/1.1/DTD/svg11.dtd">
<svg width="100%" height="100%" viewBox="0 0 24 24" version="1.1" xmlns="http://www.w3.org/2000/svg" xmlns:xlink="http://www.w3.org/1999/xlink" xml:space="preserve" xmlns:serif="http://www.serif.com/" style="fill-rule:evenodd;clip-rule:evenodd;stroke-linejoin:round;stroke-miterlimit:2;">
    <g transform="matrix(1,0,0,1,-7339,-2714)">
        <g id="Artboard17" transform="matrix(0.4,0,0,0.4,4369.8,1625.6)">
            <rect x="7423" y="2721" width="60" height="60" style="fill:none;"/>
            <g transform="matrix(0.922144,0,0,0.922144,580.259,214.181)">
                <g transform="matrix(1.81978,0,0,1.81978,6429.45,1732.87)">
                    <path d="M569.497,548.563C569.613,548.287 569.494,547.969 569.225,547.838L567.996,547.238L572.354,545.389L573.194,550.353L571.95,549.607C571.822,549.529 571.667,549.508 571.522,549.544C571.376,549.581 571.251,549.675 571.175,549.805C568.16,554.93 564.21,559.487 556.163,559.326C560.508,558.401 566.447,555.793 569.497,548.563ZM551.005,558.677C550.706,558.655 550.447,558.863 550.404,559.156C550.361,559.449 550.552,559.726 550.841,559.789C552.931,560.243 554.819,560.45 556.534,560.45C564.659,560.45 568.865,555.801 571.855,550.863L573.664,551.948C573.852,552.062 574.089,552.055 574.271,551.931C574.453,551.807 574.545,551.589 574.509,551.371L573.346,544.498C573.317,544.328 573.212,544.181 573.061,544.098C572.91,544.016 572.729,544.006 572.571,544.073L566.418,546.684C566.215,546.77 566.081,546.967 566.075,547.188C566.069,547.408 566.193,547.611 566.391,547.708L568.245,548.613C563.298,559.509 551.512,558.717 551.005,558.677Z" style="fill:rgb(71,71,71);fill-rule:nonzero;"/>
                </g>
                <g transform="matrix(1.81978,0,0,1.81978,6429.45,1732.87)">
                    <path d="M556.277,568.28L556.277,572.517C556.277,573.204 555.897,573.808 555.464,573.808L552.813,573.808C552.38,573.808 552,573.204 552,572.517L552,568.28C552,567.593 552.38,566.989 552.813,566.989L555.464,566.989C555.897,566.989 556.277,567.593 556.277,568.28ZM552.813,565.863C551.726,565.863 550.874,566.925 550.874,568.28L550.874,572.517C550.874,573.872 551.726,574.935 552.813,574.935L555.464,574.935C556.552,574.935 557.404,573.872 557.404,572.517L557.404,568.28C557.404,566.925 556.552,565.863 555.464,565.863L552.813,565.863Z" style="fill:rgb(71,71,71);fill-rule:nonzero;"/>
                </g>
                <g transform="matrix(1.81978,0,0,1.81978,6429.45,1732.87)">
                    <path d="M564.292,564.309L564.292,572.517C564.292,573.204 563.913,573.808 563.48,573.808L560.828,573.808C560.396,573.808 560.016,573.204 560.016,572.517L560.016,564.309C560.016,563.621 560.396,563.018 560.828,563.018L563.48,563.018C563.913,563.018 564.292,563.621 564.292,564.309ZM560.828,561.891C559.741,561.891 558.889,562.952 558.889,564.309L558.889,572.517C558.889,573.872 559.741,574.935 560.828,574.935L563.48,574.935C564.567,574.935 565.419,573.872 565.419,572.517L565.419,564.309C565.419,562.952 564.567,561.891 563.48,561.891L560.828,561.891Z" style="fill:rgb(71,71,71);fill-rule:nonzero;"/>
                </g>
                <g transform="matrix(1.81978,0,0,1.81978,6429.45,1732.87)">
                    <path d="M573.099,572.517C573.099,573.204 572.719,573.808 572.286,573.808L569.635,573.808C569.202,573.808 568.822,573.204 568.822,572.517L568.822,559.542C568.822,558.854 569.202,558.251 569.635,558.251L572.286,558.251C572.719,558.251 573.099,558.854 573.099,559.542L573.099,572.517ZM572.286,557.125L569.635,557.125C568.547,557.125 567.695,558.187 567.695,559.542L567.695,572.517C567.695,573.872 568.547,574.935 569.635,574.935L572.286,574.935C573.374,574.935 574.225,573.872 574.225,572.517L574.225,559.542C574.225,558.187 573.374,557.125 572.286,557.125Z" style="fill:rgb(71,71,71);fill-rule:nonzero;"/>
                </g>
            </g>
        </g>
    </g>
</svg>
