<?xml version="1.0" encoding="UTF-8" standalone="no"?>
<!DOCTYPE svg PUBLIC "-//W3C//DTD SVG 1.1//EN" "http://www.w3.org/Graphics/SVG/1.1/DTD/svg11.dtd">
<svg width="100%" height="100%" viewBox="0 0 24 24" version="1.1" xmlns="http://www.w3.org/2000/svg" xmlns:xlink="http://www.w3.org/1999/xlink" xml:space="preserve" xmlns:serif="http://www.serif.com/" style="fill-rule:evenodd;clip-rule:evenodd;stroke-linejoin:round;stroke-miterlimit:2;">
    <g transform="matrix(1,0,0,1,-7262,-2740)">
        <g id="Artboard17" transform="matrix(0.4,0,0,0.4,4292.8,1651.6)">
            <rect x="7423" y="2721" width="60" height="60" style="fill:none;"/>
            <g transform="matrix(1.74894,0,0,1.74894,7110.43,2534.07)">
                <g transform="matrix(0.549149,0,0,0.549149,181.504,108.573)">
                    <path d="M46.125,55.521L4.388,55.521C2.403,55.521 0.789,53.906 0.789,51.921L0.789,20.319C0.789,19.854 1.167,19.476 1.633,19.476C2.099,19.476 2.477,19.854 2.477,20.319L2.477,51.921C2.477,52.975 3.334,53.833 4.388,53.833L45.281,53.833L45.281,44.013C45.281,43.546 45.659,43.169 46.125,43.169C46.592,43.169 46.969,43.546 46.969,44.013L46.969,54.676C46.969,55.143 46.592,55.521 46.125,55.521Z" style="fill:rgb(71,71,71);fill-rule:nonzero;"/>
                </g>
                <g transform="matrix(0.549149,0,0,0.549149,181.504,108.573)">
                    <path d="M46.125,35.024C45.659,35.024 45.281,34.646 45.281,34.18L45.281,23.919L4.388,23.919C2.403,23.919 0.789,22.304 0.789,20.319C0.789,18.335 2.403,16.721 4.388,16.721L14.506,16.721C14.972,16.721 15.35,17.098 15.35,17.565C15.35,18.031 14.972,18.409 14.506,18.409L4.388,18.409C3.334,18.409 2.477,19.266 2.477,20.319C2.477,21.373 3.334,22.23 4.388,22.23L45.501,22.23C46.311,22.23 46.969,22.889 46.969,23.698L46.969,34.18C46.969,34.646 46.592,35.024 46.125,35.024Z" style="fill:rgb(71,71,71);fill-rule:nonzero;"/>
                </g>
                <g transform="matrix(0.549149,0,0,0.549149,181.504,108.573)">
                    <path d="M50.284,51.778L46.125,51.778C45.659,51.778 45.281,51.4 45.281,50.934C45.281,50.468 45.659,50.09 46.125,50.09L49.439,50.09L49.439,18.812C49.439,18.59 49.259,18.409 49.036,18.409L47.272,18.409C46.806,18.409 46.428,18.031 46.428,17.565C46.428,17.098 46.806,16.721 47.272,16.721L49.036,16.721C50.189,16.721 51.127,17.659 51.127,18.812L51.127,50.934C51.127,51.4 50.75,51.778 50.284,51.778Z" style="fill:rgb(71,71,71);fill-rule:nonzero;"/>
                </g>
                <g transform="matrix(0.549149,0,0,0.549149,181.504,108.573)">
                    <path d="M38.411,35.024C36.165,35.024 34.339,36.851 34.339,39.096C34.339,41.342 36.165,43.168 38.411,43.168L49.439,43.168L49.439,35.024L38.411,35.024ZM50.284,44.857L38.411,44.857C35.234,44.857 32.651,42.273 32.651,39.096C32.651,35.92 35.234,33.336 38.411,33.336L50.284,33.336C50.75,33.336 51.127,33.714 51.127,34.18L51.127,44.012C51.127,44.479 50.75,44.857 50.284,44.857Z" style="fill:rgb(71,71,71);fill-rule:nonzero;"/>
                </g>
                <g transform="matrix(0.549149,0,0,0.549149,181.504,108.573)">
                    <path d="M38.667,37.894C38.004,37.894 37.464,38.433 37.464,39.096C37.464,39.759 38.004,40.299 38.667,40.299C39.33,40.299 39.869,39.759 39.869,39.096C39.869,38.433 39.33,37.894 38.667,37.894ZM38.667,41.987C37.073,41.987 35.776,40.69 35.776,39.096C35.776,37.502 37.073,36.206 38.667,36.206C40.261,36.206 41.557,37.502 41.557,39.096C41.557,40.69 40.261,41.987 38.667,41.987Z" style="fill:rgb(71,71,71);fill-rule:nonzero;"/>
                </g>
                <g transform="matrix(0.549149,0,0,0.549149,181.504,108.573)">
                    <path d="M38.411,35.024C36.165,35.024 34.339,36.851 34.339,39.096C34.339,41.342 36.165,43.168 38.411,43.168L49.439,43.168L49.439,35.024L38.411,35.024ZM50.284,44.857L38.411,44.857C35.234,44.857 32.651,42.273 32.651,39.096C32.651,35.92 35.234,33.336 38.411,33.336L50.284,33.336C50.75,33.336 51.127,33.714 51.127,34.18L51.127,44.012C51.127,44.479 50.75,44.857 50.284,44.857Z" style="fill:rgb(71,71,71);fill-rule:nonzero;"/>
                </g>
                <g transform="matrix(0.549149,0,0,0.549149,181.504,108.573)">
                    <path d="M13.504,22.23L31.189,22.23L31.932,20.331L32.718,20.639L31.932,20.331L35.287,11.754C35.356,11.579 35.352,11.387 35.276,11.214C35.201,11.041 35.062,10.908 34.887,10.839L21.135,5.46C20.772,5.318 20.362,5.498 20.22,5.861L13.504,22.23ZM31.765,23.919L12.246,23.919C11.964,23.919 11.701,23.778 11.544,23.545C11.388,23.311 11.358,23.014 11.465,22.754L18.653,5.233C19.129,4.016 20.521,3.408 21.75,3.888L35.501,9.267C36.731,9.748 37.34,11.14 36.859,12.369L32.551,23.382C32.424,23.705 32.113,23.919 31.765,23.919Z" style="fill:rgb(71,71,71);fill-rule:nonzero;"/>
                </g>
                <g transform="matrix(0.549149,0,0,0.549149,181.504,108.573)">
                    <path d="M18.018,22.23L21.121,22.23L26.812,7.681L24.122,6.629L18.018,22.23ZM21.697,23.919L16.782,23.919C16.502,23.919 16.242,23.78 16.084,23.55C15.927,23.32 15.894,23.026 15.996,22.767L22.857,5.227C22.938,5.019 23.1,4.851 23.305,4.761C23.51,4.672 23.743,4.668 23.951,4.749L28.213,6.416C28.647,6.586 28.862,7.076 28.692,7.51L22.483,23.382C22.356,23.705 22.044,23.919 21.697,23.919Z" style="fill:rgb(71,71,71);fill-rule:nonzero;"/>
                </g>
                <g transform="matrix(0.549149,0,0,0.549149,181.504,108.573)">
                    <path d="M45.106,23.919C45.004,23.919 44.899,23.9 44.798,23.86C44.364,23.689 44.151,23.199 44.321,22.765L49.798,8.832C49.94,8.47 49.76,8.06 49.397,7.918L35.646,2.539C35.471,2.47 35.279,2.474 35.105,2.549C34.933,2.625 34.8,2.763 34.731,2.939L32.378,8.952C32.209,9.386 31.72,9.601 31.285,9.43C30.851,9.261 30.637,8.771 30.807,8.337L33.159,2.324C33.392,1.729 33.843,1.259 34.429,1.003C35.015,0.746 35.665,0.733 36.261,0.966L50.013,6.346C51.242,6.827 51.851,8.218 51.37,9.448L45.893,23.383C45.762,23.715 45.443,23.919 45.106,23.919Z" style="fill:rgb(71,71,71);fill-rule:nonzero;"/>
                </g>
                <g transform="matrix(0.549149,0,0,0.549149,181.504,108.573)">
                    <path d="M35.064,23.919C34.962,23.919 34.858,23.9 34.757,23.86C34.323,23.691 34.109,23.201 34.279,22.767L41.323,4.759L38.632,3.707L36.022,10.378C35.852,10.812 35.364,11.027 34.929,10.857C34.495,10.687 34.281,10.197 34.451,9.763L37.368,2.306C37.537,1.872 38.026,1.657 38.461,1.827L42.725,3.495C42.933,3.576 43.1,3.737 43.19,3.943C43.28,4.148 43.284,4.38 43.203,4.589L35.851,23.382C35.721,23.715 35.402,23.919 35.064,23.919Z" style="fill:rgb(71,71,71);fill-rule:nonzero;"/>
                </g>
            </g>
        </g>
    </g>
</svg>
