<?xml version="1.0" encoding="UTF-8" standalone="no"?>
<!DOCTYPE svg PUBLIC "-//W3C//DTD SVG 1.1//EN" "http://www.w3.org/Graphics/SVG/1.1/DTD/svg11.dtd">
<svg width="100%" height="100%" viewBox="0 0 24 24" version="1.1" xmlns="http://www.w3.org/2000/svg" xmlns:xlink="http://www.w3.org/1999/xlink" xml:space="preserve" xmlns:serif="http://www.serif.com/" style="fill-rule:evenodd;clip-rule:evenodd;stroke-linejoin:round;stroke-miterlimit:2;">
    <g transform="matrix(1,0,0,1,-7287,-2740)">
        <g id="Artboard17" transform="matrix(0.4,0,0,0.4,4317.8,1651.6)">
            <rect x="7423" y="2721" width="60" height="60" style="fill:none;"/>
            <g transform="matrix(0.553976,0,0,1.69659,7926.38,-1366.61)">
                <g transform="matrix(0.653583,0,0,0.21341,-954.962,2246.39)">
                    <path d="M225.854,896.991C225.682,897.315 225.159,898.069 224.059,898.069L83.346,898.069C82.209,898.069 81.692,897.28 81.523,896.942C81.354,896.602 81.031,895.717 81.714,894.807L102.498,867.09L207.203,867.09L225.753,894.899C226.364,895.815 226.029,896.668 225.854,896.991ZM107.368,794.533L203.185,794.533C204.922,794.533 206.333,795.945 206.333,797.681L206.333,860.771L104.22,860.707L104.22,797.681C104.22,795.945 105.631,794.533 107.368,794.533ZM203.185,788.237L107.368,788.237C102.161,788.237 97.924,792.473 97.924,797.681L97.924,862.694L76.678,891.03C74.772,893.571 74.471,896.916 75.891,899.758C77.311,902.6 80.17,904.364 83.346,904.364L224.059,904.364C227.139,904.364 229.952,902.677 231.406,899.961C232.86,897.245 232.7,893.966 230.991,891.404L212.629,863.878L212.629,797.681C212.629,792.473 208.393,788.237 203.185,788.237Z" style="fill:rgb(71,71,71);fill-rule:nonzero;"/>
                </g>
                <g transform="matrix(0.653583,0,0,0.21341,-954.962,2246.39)">
                    <path d="M177.724,887.217L129.001,887.217C127.261,887.217 125.853,888.626 125.853,890.365C125.853,892.103 127.261,893.513 129.001,893.513L177.724,893.513C179.464,893.513 180.872,892.103 180.872,890.365C180.872,888.626 179.464,887.217 177.724,887.217Z" style="fill:rgb(71,71,71);fill-rule:nonzero;"/>
                </g>
                <g transform="matrix(0.653583,0,0,0.21341,-954.962,2246.39)">
                    <path d="M155.273,812.171L165.086,824.674L163.014,824.674C161.274,824.674 159.866,826.083 159.866,827.822L159.866,839.683C159.866,842.218 157.804,844.279 155.27,844.279C152.737,844.279 150.674,842.218 150.674,839.683L150.674,827.822C150.674,826.083 149.267,824.674 147.527,824.674L145.476,824.674L155.273,812.171ZM144.332,830.97L144.378,839.683C144.378,845.689 149.263,850.575 155.27,850.575C161.277,850.575 166.162,845.689 166.162,839.683L166.162,830.97L166.227,830.97C168.443,830.97 170.42,829.732 171.388,827.74C172.36,825.748 172.111,823.427 170.743,821.682L157.745,805.125C157.149,804.365 156.236,803.921 155.27,803.921C154.302,803.921 153.389,804.367 152.793,805.128L139.816,821.685C138.451,823.429 138.202,825.75 139.174,827.742C140.142,829.732 142.119,830.97 144.332,830.97Z" style="fill:rgb(71,71,71);fill-rule:nonzero;"/>
                </g>
            </g>
        </g>
    </g>
</svg>
