<?xml version="1.0" encoding="UTF-8" standalone="no"?>
<!DOCTYPE svg PUBLIC "-//W3C//DTD SVG 1.1//EN" "http://www.w3.org/Graphics/SVG/1.1/DTD/svg11.dtd">
<svg width="100%" height="100%" viewBox="0 0 24 24" version="1.1" xmlns="http://www.w3.org/2000/svg" xmlns:xlink="http://www.w3.org/1999/xlink" xml:space="preserve" xmlns:serif="http://www.serif.com/" style="fill-rule:evenodd;clip-rule:evenodd;stroke-linejoin:round;stroke-miterlimit:2;">
    <g transform="matrix(1,0,0,1,-7313,-2741)">
        <g id="Artboard17" transform="matrix(0.4,0,0,0.4,4343.8,1652.6)">
            <rect x="7423" y="2721" width="60" height="60" style="fill:none;"/>
            <g transform="matrix(0.540448,0,0,1.65516,7914.82,-1266.06)">
                <g transform="matrix(2.17963,0,0,0.7117,-1658.26,1844.72)">
                    <path d="M391.391,833.413L346.126,833.413L346.126,832.854L391.391,832.854L391.391,833.413ZM351.683,829.72L385.651,829.72L388.834,831.294L348.595,831.294L351.683,829.72ZM352.275,802.873L385.053,802.873L385.053,828.158L352.275,828.158L352.275,802.873ZM392.94,831.946C392.937,831.928 392.933,831.91 392.929,831.893C392.922,831.863 392.913,831.835 392.903,831.807C392.896,831.79 392.891,831.772 392.883,831.756C392.869,831.725 392.853,831.695 392.834,831.667C392.828,831.656 392.823,831.644 392.816,831.634C392.79,831.595 392.76,831.559 392.727,831.526C392.719,831.518 392.709,831.511 392.7,831.503C392.675,831.479 392.648,831.456 392.619,831.436C392.604,831.425 392.588,831.417 392.572,831.407C392.554,831.396 392.537,831.384 392.518,831.375L386.614,828.454L386.614,802.092C386.614,801.661 386.265,801.312 385.833,801.312L351.495,801.312C351.063,801.312 350.714,801.661 350.714,802.092L350.714,828.461L344.992,831.379C344.975,831.387 344.96,831.398 344.944,831.408C344.928,831.418 344.912,831.428 344.896,831.438C344.87,831.457 344.846,831.478 344.822,831.5C344.811,831.51 344.799,831.519 344.789,831.529C344.756,831.562 344.727,831.598 344.7,831.637C344.697,831.641 344.695,831.646 344.692,831.651C344.67,831.686 344.65,831.721 344.633,831.759C344.626,831.774 344.622,831.791 344.616,831.808C344.605,831.836 344.596,831.864 344.588,831.895C344.585,831.912 344.582,831.93 344.579,831.948C344.574,831.979 344.57,832.011 344.569,832.043C344.569,832.053 344.566,832.063 344.566,832.074L344.566,834.193C344.566,834.624 344.915,834.974 345.346,834.974L392.172,834.974C392.603,834.974 392.953,834.624 392.953,834.193L392.953,832.074C392.953,832.063 392.95,832.053 392.949,832.042C392.948,832.01 392.945,831.978 392.94,831.946Z" style="fill:rgb(71,71,71);fill-rule:nonzero;"/>
                </g>
                <g transform="matrix(2.17963,0,0,0.7117,-1658.26,1844.72)">
                    <path d="M380.928,822.124L356.401,822.124L356.401,806.098L380.928,806.098L380.928,822.124ZM381.708,804.537L355.621,804.537C355.19,804.537 354.84,804.887 354.84,805.318L354.84,822.904C354.84,823.335 355.19,823.684 355.621,823.684L381.708,823.684C382.139,823.684 382.488,823.335 382.488,822.904L382.488,805.318C382.488,804.887 382.139,804.537 381.708,804.537Z" style="fill:rgb(71,71,71);fill-rule:nonzero;"/>
                </g>
                <g transform="matrix(2.17963,0,0,0.7117,-1658.26,1844.72)">
                    <path d="M368.977,826.546C368.568,826.546 368.235,826.213 368.235,825.805C368.235,825.396 368.568,825.063 368.977,825.063C369.385,825.063 369.718,825.396 369.718,825.805C369.718,826.213 369.385,826.546 368.977,826.546ZM368.977,824.126C368.051,824.126 367.299,824.879 367.299,825.805C367.299,826.729 368.051,827.482 368.977,827.482C369.902,827.482 370.654,826.729 370.654,825.805C370.654,824.879 369.902,824.126 368.977,824.126Z" style="fill:rgb(71,71,71);fill-rule:nonzero;"/>
                </g>
                <g transform="matrix(1.62134,0,0,0.529407,-1200.24,2354.88)">
                    <g transform="matrix(0.70863,0,0,0.70863,91.8109,-45.4792)">
                        <path d="M172.447,258.063L168.599,258.063C168.265,258.063 167.994,257.791 167.994,257.457L167.994,255.644C167.871,255.597 167.75,255.546 167.628,255.491L166.345,256.774C166.109,257.011 165.726,257.011 165.489,256.774L162.768,254.054C162.654,253.94 162.59,253.786 162.59,253.625C162.59,253.465 162.654,253.31 162.768,253.197L164.051,251.913C163.996,251.792 163.945,251.67 163.898,251.549L162.085,251.549C161.75,251.549 161.479,251.277 161.479,250.943L161.479,247.096C161.479,246.761 161.75,246.49 162.085,246.49L163.898,246.49C163.945,246.368 163.997,246.246 164.051,246.124L162.768,244.841C162.654,244.728 162.59,244.574 162.59,244.413C162.59,244.252 162.654,244.099 162.768,243.985L165.489,241.264C165.603,241.151 165.756,241.087 165.917,241.087C166.078,241.087 166.232,241.151 166.345,241.264L167.628,242.547C167.75,242.493 167.871,242.441 167.994,242.394L167.994,240.581C167.994,240.247 168.265,239.975 168.599,239.975L172.447,239.975C172.781,239.975 173.053,240.247 173.053,240.581L173.053,242.394C173.175,242.441 173.296,242.493 173.418,242.547L174.701,241.264C174.938,241.027 175.321,241.027 175.557,241.264L178.278,243.985C178.515,244.222 178.515,244.605 178.278,244.841L176.995,246.124C177.05,246.246 177.101,246.368 177.148,246.49L178.961,246.49C179.295,246.49 179.566,246.761 179.566,247.096L179.566,250.943C179.566,251.277 179.295,251.549 178.961,251.549L177.148,251.549C177.101,251.671 177.05,251.792 176.995,251.913L178.278,253.197C178.515,253.434 178.515,253.817 178.278,254.054L175.557,256.774C175.321,257.011 174.938,257.011 174.701,256.774L173.417,255.491C173.296,255.546 173.175,255.597 173.053,255.644L173.053,257.457C173.053,257.791 172.781,258.063 172.447,258.063ZM170.523,253.871C167.848,253.871 165.671,251.694 165.671,249.019C165.671,246.344 167.848,244.167 170.523,244.167C173.198,244.167 175.375,246.344 175.375,249.019C175.375,251.694 173.198,253.871 170.523,253.871Z" style="fill:rgb(71,71,71);"/>
                    </g>
                    <g transform="matrix(0.70863,0,0,0.70863,91.8109,-45.4792)">
                        <path d="M170.523,245.379C168.516,245.379 166.883,247.012 166.883,249.019C166.883,251.027 168.516,252.66 170.523,252.66C172.53,252.66 174.163,251.027 174.163,249.019C174.163,247.012 172.53,245.379 170.523,245.379Z" style="fill:rgb(71,71,71);"/>
                    </g>
                </g>
            </g>
        </g>
    </g>
</svg>
