<?xml version="1.0" encoding="UTF-8" standalone="no"?>
<!DOCTYPE svg PUBLIC "-//W3C//DTD SVG 1.1//EN" "http://www.w3.org/Graphics/SVG/1.1/DTD/svg11.dtd">
<svg width="100%" height="100%" viewBox="0 0 24 24" version="1.1" xmlns="http://www.w3.org/2000/svg" xmlns:xlink="http://www.w3.org/1999/xlink" xml:space="preserve" xmlns:serif="http://www.serif.com/" style="fill-rule:evenodd;clip-rule:evenodd;stroke-linejoin:round;stroke-miterlimit:2;">
    <g transform="matrix(1,0,0,1,-7262,-2767)">
        <g id="Artboard17" transform="matrix(0.4,0,0,0.4,4292.8,1678.6)">
            <rect x="7423" y="2721" width="60" height="60" style="fill:none;"/>
            <g transform="matrix(1.31274,0,0,1.31274,6460.37,2613.13)">
                <path d="M754.154,100.87C754.154,100.565 754.934,100.122 756.155,100.122C757.376,100.122 758.156,100.565 758.156,100.87C758.156,101.175 757.376,101.618 756.155,101.618C754.934,101.618 754.154,101.175 754.154,100.87ZM736.655,100.418C741.376,98.946 752.714,94.68 755.809,93.508L775.829,100.343L756.155,108.878L743.164,103.242L754.133,101.794C754.612,102.089 755.327,102.271 756.155,102.271C757.667,102.271 758.808,101.668 758.808,100.87C758.808,100.072 757.667,99.47 756.155,99.47C754.85,99.47 753.825,99.918 753.567,100.554L740.838,102.233L736.655,100.418ZM766.989,115.652C766.989,116.167 766.571,116.585 766.057,116.585L747.664,116.585C747.149,116.585 746.731,116.167 746.731,115.652L746.731,106.211L755.896,110.188C755.979,110.224 756.067,110.242 756.155,110.242C756.244,110.242 756.332,110.224 756.415,110.188L766.989,105.6L766.989,115.652ZM739.708,112.781L740.38,108.799C740.418,108.57 740.333,108.338 740.155,108.19C740.044,108.097 739.98,107.961 739.98,107.817C739.98,107.55 740.198,107.332 740.466,107.332C740.733,107.332 740.952,107.55 740.952,107.817C740.952,107.966 740.886,108.073 740.831,108.136C740.708,108.278 740.651,108.467 740.677,108.653L741.247,112.781L739.708,112.781ZM740.092,106.067C739.284,106.24 738.676,106.958 738.676,107.817C738.676,108.213 738.806,108.591 739.04,108.899L738.293,113.324C738.261,113.514 738.314,113.708 738.438,113.854C738.562,114 738.744,114.085 738.936,114.085L741.996,114.085C742.184,114.085 742.363,114.003 742.487,113.861C742.611,113.719 742.667,113.53 742.642,113.344L742.004,108.73C742.168,108.456 742.256,108.14 742.256,107.817C742.256,107.171 741.911,106.606 741.396,106.291L741.396,103.897L745.427,105.646L745.427,115.652C745.427,116.886 746.43,117.89 747.664,117.89L766.057,117.89C767.29,117.89 768.293,116.886 768.293,115.652L768.293,105.034L777.895,100.869C778.142,100.762 778.297,100.513 778.287,100.244C778.276,99.976 778.101,99.741 777.846,99.654L756.008,92.198C755.864,92.149 755.708,92.152 755.566,92.206C748.089,95.037 735.811,99.55 734.67,99.619C734.363,99.621 734.1,99.837 734.037,100.138C733.974,100.44 734.132,100.746 734.416,100.869L740.092,103.331L740.092,106.067Z" style="fill:rgb(71,71,71);fill-rule:nonzero;"/>
            </g>
        </g>
    </g>
</svg>
