<?xml version="1.0" encoding="UTF-8" standalone="no"?>
<!DOCTYPE svg PUBLIC "-//W3C//DTD SVG 1.1//EN" "http://www.w3.org/Graphics/SVG/1.1/DTD/svg11.dtd">
<svg width="100%" height="100%" viewBox="0 0 66 66" version="1.1" xmlns="http://www.w3.org/2000/svg" xmlns:xlink="http://www.w3.org/1999/xlink" xml:space="preserve" xmlns:serif="http://www.serif.com/" style="fill-rule:evenodd;clip-rule:evenodd;stroke-linejoin:round;stroke-miterlimit:2;">
    <g transform="matrix(1,0,0,1,-257.81,-137.498)">
        <g id="Artboard1" transform="matrix(1.41117,0,0,1.41117,7.56429,-9.37948)">
            <rect x="177.332" y="104.082" width="46.34" height="46.34" style="fill:none;"/>
            <g transform="matrix(0.768403,0,0,0.768403,179.84,103.955)">
                <path d="M56.43,4.389C56.43,2.396 54.811,0.778 52.818,0.778L0.96,0.778C-1.034,0.778 -2.652,2.396 -2.652,4.389L-2.652,56.248C-2.652,58.241 -1.034,59.859 0.96,59.859L52.818,59.859C54.811,59.859 56.43,58.241 56.43,56.248L56.43,4.389Z" style="fill:rgb(0,156,255);"/>
            </g>
            <g>
                <g transform="matrix(0.558243,0,0,0.558243,25.5735,37.1233)">
                    <path d="M287.965,163.279L293.143,164.65L296.94,150.664L291.779,149.281L287.965,163.279ZM293.738,166.525C293.666,166.525 293.593,166.515 293.521,166.497L286.711,164.693C286.495,164.635 286.308,164.494 286.197,164.298C286.084,164.104 286.054,163.873 286.114,163.656L290.371,148.026C290.493,147.577 290.956,147.312 291.404,147.433L298.195,149.253C298.412,149.311 298.596,149.453 298.708,149.647C298.82,149.841 298.849,150.072 298.79,150.289L294.552,165.902C294.451,166.277 294.11,166.525 293.738,166.525Z" style="fill:white;fill-rule:nonzero;"/>
                </g>
                <g transform="matrix(0.558243,0,0,0.558243,25.5735,37.1233)">
                    <path d="M295.178,163.593L295.642,163.74C296.745,164.088 297.928,163.922 298.89,163.283L307.687,157.446C309.131,156.487 311.008,156.471 312.469,157.407L315.821,159.551C316.082,159.719 316.391,159.763 316.691,159.676C316.99,159.589 317.227,159.385 317.358,159.101C317.552,158.681 317.453,158.188 317.112,157.876L311.352,152.584C310.335,151.648 308.884,151.319 307.562,151.723L303.149,153.073C301.837,153.475 300.444,153.494 299.119,153.125L298.098,152.841L295.178,163.593ZM296.796,165.607C296.24,165.607 295.679,165.522 295.133,165.349L293.897,164.958C293.465,164.821 293.218,164.369 293.337,163.932L296.692,151.58C296.75,151.363 296.893,151.178 297.088,151.067C297.285,150.956 297.515,150.925 297.732,150.988L299.57,151.499C300.582,151.779 301.65,151.765 302.656,151.459L307.069,150.109C308.958,149.53 311.038,150.002 312.494,151.34L318.253,156.631C319.138,157.443 319.394,158.72 318.89,159.81C318.557,160.532 317.928,161.074 317.164,161.297C316.4,161.52 315.579,161.401 314.911,160.973L311.559,158.829C310.662,158.255 309.508,158.263 308.621,158.853L299.824,164.69C298.912,165.296 297.86,165.607 296.796,165.607Z" style="fill:white;fill-rule:nonzero;"/>
                </g>
                <g transform="matrix(0.558243,0,0,0.558243,25.5735,37.1233)">
                    <path d="M328.196,166.481C327.878,166.481 327.575,166.301 327.431,165.995C327.234,165.573 327.415,165.07 327.838,164.873L331.221,163.29L327.166,153.223L324.698,153.588C323.629,153.747 322.528,153.633 321.513,153.264L314.994,150.89C314.497,150.71 313.954,150.719 313.463,150.916L310.982,151.914C310.547,152.087 310.056,151.879 309.883,151.447C309.709,151.014 309.918,150.522 310.351,150.348L312.833,149.349C313.711,148.997 314.682,148.98 315.571,149.304L322.09,151.678C322.842,151.952 323.658,152.036 324.452,151.918L327.579,151.457C327.964,151.394 328.338,151.614 328.485,151.976L333.085,163.4C333.253,163.816 333.067,164.29 332.661,164.48L328.553,166.401C328.438,166.456 328.316,166.481 328.196,166.481Z" style="fill:white;fill-rule:nonzero;"/>
                </g>
                <g transform="matrix(0.558243,0,0,0.558243,25.5735,37.1233)">
                    <path d="M326.121,164.627C325.996,164.627 325.871,164.664 325.76,164.742L325.221,165.124C324.939,165.323 324.872,165.714 325.072,165.997L326.599,168.153C326.799,168.435 327.191,168.503 327.471,168.303L328.011,167.922C328.293,167.721 328.361,167.33 328.161,167.047L326.633,164.891C326.511,164.718 326.318,164.627 326.121,164.627ZM327.114,170.105C326.387,170.105 325.671,169.765 325.221,169.129L323.694,166.972C322.956,165.93 323.204,164.482 324.246,163.746L324.785,163.364C325.829,162.628 327.276,162.875 328.011,163.916L329.538,166.072C330.276,167.115 330.028,168.561 328.986,169.298L328.448,169.68C328.041,169.968 327.575,170.105 327.114,170.105Z" style="fill:white;fill-rule:nonzero;"/>
                </g>
                <g transform="matrix(0.558243,0,0,0.558243,25.5735,37.1233)">
                    <path d="M321.358,164.174C321.221,164.174 321.083,164.215 320.963,164.3L320.401,164.698C320.252,164.803 320.154,164.962 320.122,165.141C320.092,165.322 320.133,165.504 320.239,165.652L324.079,171.076C324.184,171.225 324.342,171.325 324.523,171.355C324.703,171.386 324.884,171.345 325.033,171.24L325.594,170.842C325.744,170.736 325.843,170.579 325.873,170.398C325.905,170.218 325.864,170.037 325.757,169.887L321.918,164.464C321.785,164.275 321.573,164.174 321.358,164.174ZM324.643,173.054C324.508,173.054 324.372,173.043 324.238,173.02C323.613,172.913 323.067,172.569 322.701,172.051L318.861,166.629C318.495,166.111 318.352,165.482 318.458,164.857C318.566,164.233 318.909,163.686 319.426,163.32L319.989,162.922C320.505,162.555 321.137,162.414 321.759,162.52C322.384,162.628 322.929,162.971 323.296,163.488L327.136,168.912C327.501,169.429 327.645,170.058 327.538,170.683C327.43,171.308 327.087,171.853 326.57,172.22L326.009,172.617C325.603,172.905 325.13,173.054 324.643,173.054Z" style="fill:white;fill-rule:nonzero;"/>
                </g>
                <g transform="matrix(0.558243,0,0,0.558243,25.5735,37.1233)">
                    <path d="M318.472,166.582C318.332,166.582 318.195,166.625 318.079,166.708L317.516,167.106C317.367,167.212 317.268,167.368 317.237,167.548C317.206,167.729 317.247,167.911 317.354,168.06L320.206,172.089C320.312,172.239 320.469,172.339 320.649,172.37C320.831,172.401 321.012,172.358 321.161,172.253L321.723,171.855C321.871,171.75 321.971,171.592 322.001,171.412C322.033,171.231 321.991,171.05 321.885,170.9L319.033,166.871C318.927,166.721 318.769,166.623 318.589,166.591C318.55,166.585 318.511,166.582 318.472,166.582ZM320.77,174.068C320.635,174.068 320.5,174.056 320.365,174.034C319.74,173.926 319.194,173.583 318.828,173.065L315.975,169.036C315.61,168.517 315.466,167.889 315.573,167.264C315.68,166.639 316.024,166.093 316.541,165.727L317.103,165.33C317.62,164.964 318.248,164.82 318.873,164.927C319.497,165.035 320.043,165.378 320.411,165.895L323.264,169.925C324.019,170.994 323.766,172.478 322.698,173.233L322.135,173.631C321.731,173.918 321.256,174.068 320.77,174.068Z" style="fill:white;fill-rule:nonzero;"/>
                </g>
                <g transform="matrix(0.558243,0,0,0.558243,25.5735,37.1233)">
                    <path d="M315.618,169.078C315.464,169.078 315.315,169.126 315.188,169.215L314.603,169.63C314.267,169.867 314.188,170.334 314.425,170.671L316.772,173.984C316.886,174.147 317.059,174.255 317.255,174.289C317.453,174.322 317.65,174.277 317.812,174.163L318.397,173.749C318.56,173.633 318.667,173.461 318.702,173.264C318.735,173.068 318.69,172.87 318.576,172.708L316.229,169.394C316.113,169.23 315.942,169.122 315.746,169.089C315.703,169.082 315.661,169.078 315.618,169.078ZM317.384,175.987C316.621,175.987 315.869,175.63 315.394,174.96L313.047,171.646C312.272,170.549 312.533,169.027 313.627,168.252L314.212,167.838C314.743,167.463 315.389,167.315 316.03,167.424C316.67,167.534 317.231,167.887 317.607,168.419L319.953,171.732C320.329,172.263 320.475,172.909 320.366,173.549C320.255,174.19 319.903,174.751 319.371,175.126L318.788,175.54C318.363,175.841 317.871,175.987 317.384,175.987Z" style="fill:white;fill-rule:nonzero;"/>
                </g>
                <g transform="matrix(0.558243,0,0,0.558243,25.5735,37.1233)">
                    <path d="M309.482,174.845C308.803,174.845 308.143,174.522 307.733,173.936C307.383,173.436 307.264,172.81 307.405,172.218C307.545,171.626 307.934,171.121 308.469,170.833L310.845,169.555C311.256,169.334 311.767,169.487 311.988,169.899C312.208,170.309 312.055,170.821 311.644,171.042L309.269,172.319C309.116,172.401 309.064,172.536 309.047,172.608C309.03,172.681 309.015,172.826 309.116,172.968C309.238,173.143 309.47,173.207 309.664,173.118L313.938,171.168C314.363,170.974 314.863,171.162 315.056,171.586C315.249,172.009 315.062,172.51 314.638,172.704L310.366,174.653C310.08,174.783 309.779,174.845 309.482,174.845Z" style="fill:white;fill-rule:nonzero;"/>
                </g>
                <g transform="matrix(0.558243,0,0,0.558243,25.5735,37.1233)">
                    <path d="M306.091,173.576C305.287,173.576 304.496,173.189 304.019,172.495C303.624,171.922 303.486,171.205 303.638,170.527C303.79,169.848 304.223,169.258 304.824,168.91L311.717,164.907C312.121,164.673 312.636,164.81 312.871,165.214C313.105,165.617 312.968,166.133 312.565,166.367L305.671,170.37C305.472,170.485 305.335,170.672 305.285,170.896C305.235,171.12 305.279,171.348 305.409,171.538C305.636,171.868 306.078,171.983 306.438,171.808L308.783,170.665C309.204,170.462 309.706,170.635 309.912,171.054C310.115,171.473 309.941,171.979 309.522,172.183L307.178,173.326C306.831,173.495 306.459,173.576 306.091,173.576Z" style="fill:white;fill-rule:nonzero;"/>
                </g>
                <g transform="matrix(0.558243,0,0,0.558243,25.5735,37.1233)">
                    <path d="M303.653,171.16C303.419,171.16 303.184,171.128 302.953,171.064C302.267,170.875 301.702,170.427 301.36,169.805C300.685,168.582 301.089,167.05 302.282,166.319L309.046,162.17C309.443,161.926 309.962,162.049 310.206,162.448C310.451,162.844 310.327,163.364 309.928,163.608L303.164,167.757C302.743,168.016 302.599,168.558 302.838,168.991C302.959,169.212 303.16,169.37 303.402,169.436C303.642,169.503 303.896,169.47 304.114,169.343L309.519,166.184C309.92,165.948 310.438,166.084 310.673,166.486C310.909,166.888 310.773,167.406 310.371,167.641L304.966,170.801C304.56,171.039 304.109,171.16 303.653,171.16Z" style="fill:white;fill-rule:nonzero;"/>
                </g>
                <g transform="matrix(0.558243,0,0,0.558243,25.5735,37.1233)">
                    <path d="M300.944,168.645C300.701,168.645 300.455,168.616 300.212,168.556C299.401,168.358 298.721,167.852 298.3,167.131C297.484,165.734 297.901,163.94 299.248,163.046L303.999,159.892C304.389,159.636 304.912,159.741 305.17,160.13C305.427,160.517 305.322,161.042 304.933,161.299L300.182,164.453C299.579,164.852 299.392,165.655 299.757,166.279C299.946,166.601 300.249,166.828 300.613,166.917C300.975,167.005 301.349,166.943 301.665,166.745L304.316,165.071C304.709,164.824 305.232,164.939 305.48,165.335C305.729,165.728 305.612,166.25 305.217,166.499L302.566,168.172C302.072,168.484 301.513,168.645 300.944,168.645Z" style="fill:white;fill-rule:nonzero;"/>
                </g>
                <g transform="matrix(0.558243,0,0,0.558243,25.5735,37.1233)">
                    <path d="M328.489,151.985L333.514,164.395L338.69,162.404L333.474,148.854L328.103,150.959L328.489,151.985ZM333.061,166.318C332.733,166.318 332.422,166.126 332.286,165.808L331.528,164.049L326.918,152.606C326.912,152.589 326.229,150.774 326.229,150.774C326.066,150.341 326.282,149.859 326.711,149.691L333.649,146.973C333.858,146.89 334.091,146.895 334.297,146.987C334.502,147.078 334.663,147.246 334.745,147.456L340.57,162.586C340.65,162.795 340.644,163.027 340.553,163.232C340.461,163.436 340.293,163.596 340.084,163.676L333.364,166.261C333.264,166.299 333.162,166.318 333.061,166.318Z" style="fill:white;fill-rule:nonzero;"/>
                </g>
            </g>
        </g>
    </g>
</svg>
