<?xml version="1.0" encoding="UTF-8" standalone="no"?>
<!DOCTYPE svg PUBLIC "-//W3C//DTD SVG 1.1//EN" "http://www.w3.org/Graphics/SVG/1.1/DTD/svg11.dtd">
<svg width="100%" height="100%" viewBox="0 0 66 66" version="1.1" xmlns="http://www.w3.org/2000/svg" xmlns:xlink="http://www.w3.org/1999/xlink" xml:space="preserve" xmlns:serif="http://www.serif.com/" style="fill-rule:evenodd;clip-rule:evenodd;stroke-linejoin:round;stroke-miterlimit:2;">
    <g transform="matrix(1,0,0,1,-325.812,-69.1229)">
        <g id="Artboard1" transform="matrix(1.41117,0,0,1.41117,75.5662,-77.7551)">
            <rect x="177.332" y="104.082" width="46.34" height="46.34" style="fill:none;"/>
            <g transform="matrix(0.768403,0,0,0.768403,179.84,103.955)">
                <path d="M56.43,4.389C56.43,2.396 54.811,0.778 52.818,0.778L0.96,0.778C-1.034,0.778 -2.652,2.396 -2.652,4.389L-2.652,56.248C-2.652,58.241 -1.034,59.859 0.96,59.859L52.818,59.859C54.811,59.859 56.43,58.241 56.43,56.248L56.43,4.389Z" style="fill:url(#_Linear1);"/>
            </g>
            <g transform="matrix(0.522588,0,0,0.522588,6.58103,110.296)">
                <text x="335.612px" y="43.611px" style="font-family:'Arial-Black', 'Arial', sans-serif;font-weight:900;font-size:31.193px;fill:white;">SNS</text>
            </g>
        </g>
    </g>
    <defs>
        <linearGradient id="_Linear1" x1="0" y1="0" x2="1" y2="0" gradientUnits="userSpaceOnUse" gradientTransform="matrix(42.727,-72.7737,72.7737,42.727,10.8424,67.6529)"><stop offset="0" style="stop-color:rgb(255,213,0);stop-opacity:1"/><stop offset="0.55" style="stop-color:rgb(255,0,47);stop-opacity:1"/><stop offset="1" style="stop-color:rgb(153,0,149);stop-opacity:1"/></linearGradient>
    </defs>
</svg>
