<?xml version="1.0" encoding="UTF-8" standalone="no"?>
<!DOCTYPE svg PUBLIC "-//W3C//DTD SVG 1.1//EN" "http://www.w3.org/Graphics/SVG/1.1/DTD/svg11.dtd">
<svg width="100%" height="100%" viewBox="0 0 63 63" version="1.1" xmlns="http://www.w3.org/2000/svg" xmlns:xlink="http://www.w3.org/1999/xlink" xml:space="preserve" xmlns:serif="http://www.serif.com/" style="fill-rule:evenodd;clip-rule:evenodd;stroke-linejoin:round;stroke-miterlimit:2;">
    <g transform="matrix(1,0,0,1,-4650.35,-6010.35)">
        <g id="Artboard19" transform="matrix(0.701096,0,0,0.701096,1399.35,1805.3)">
            <rect x="4637.04" y="5997.84" width="89.359" height="89.359" style="fill:none;"/>
            <g transform="matrix(1.03522,0,0,1.05111,-163.293,-305.673)">
                <g transform="matrix(3.25816,0,0,3.25816,-10520,-13587.3)">
                    <path d="M4671.69,6012.75C4674.55,6015.91 4676.82,6019.83 4678.12,6023.88C4676.82,6027.94 4674.55,6031.86 4671.69,6035.01C4667.53,6035.92 4663,6035.92 4658.84,6035.01C4655.97,6031.86 4653.71,6027.94 4652.41,6023.88C4653.71,6019.83 4655.97,6015.91 4658.84,6012.75C4663,6011.85 4667.53,6011.85 4671.69,6012.75Z" style="fill:rgb(97,58,188);"/>
                </g>
                <g transform="matrix(3.25816,0,0,3.25816,-10520,-13587.3)">
                    <path d="M4663.73,6020.82C4663.73,6020.04 4664.2,6019.7 4665.26,6019.7C4666.49,6019.7 4667.01,6020.15 4667.01,6021.18L4670.64,6021.18C4670.64,6018.4 4669.03,6017.21 4665.26,6017.21C4661.51,6017.21 4659.89,6018.47 4659.89,6021.4C4659.89,6025.9 4666.99,6024.55 4666.99,6026.95C4666.99,6027.74 4666.45,6028.07 4665.26,6028.07C4663.93,6028.07 4663.35,6027.62 4663.35,6026.59L4659.71,6026.59C4659.71,6029.36 4661.39,6030.56 4665.26,6030.56C4669.16,6030.56 4670.82,6029.29 4670.82,6026.37C4670.82,6021.48 4663.73,6022.66 4663.73,6020.82Z" style="fill:white;fill-rule:nonzero;"/>
                </g>
            </g>
        </g>
    </g>
</svg>
