<?xml version="1.0" encoding="UTF-8" standalone="no"?>
<!DOCTYPE svg PUBLIC "-//W3C//DTD SVG 1.1//EN" "http://www.w3.org/Graphics/SVG/1.1/DTD/svg11.dtd">
<svg width="100%" height="100%" viewBox="0 0 66 66" version="1.1" xmlns="http://www.w3.org/2000/svg" xmlns:xlink="http://www.w3.org/1999/xlink" xml:space="preserve" xmlns:serif="http://www.serif.com/" style="fill-rule:evenodd;clip-rule:evenodd;stroke-linejoin:round;stroke-miterlimit:2;">
    <g transform="matrix(1,0,0,1,-190.472,-137.498)">
        <g id="Artboard1" transform="matrix(1.41117,0,0,1.41117,-59.7741,-9.37948)">
            <rect x="177.332" y="104.082" width="46.34" height="46.34" style="fill:none;"/>
            <g transform="matrix(0.768403,0,0,0.768403,179.84,103.955)">
                <path d="M56.43,4.389C56.43,2.396 54.811,0.778 52.818,0.778L0.96,0.778C-1.034,0.778 -2.652,2.396 -2.652,4.389L-2.652,56.248C-2.652,58.241 -1.034,59.859 0.96,59.859L52.818,59.859C54.811,59.859 56.43,58.241 56.43,56.248L56.43,4.389Z" style="fill:rgb(255,0,3);"/>
            </g>
            <g transform="matrix(0.793922,0,0,0.793922,-92.2641,43.8692)">
                <path d="M368.759,92.728C375.541,92.728 381.059,98.245 381.059,105.026C381.059,111.808 375.541,117.325 368.759,117.325C361.978,117.325 356.46,111.808 356.46,105.026C356.46,98.245 361.978,92.728 368.759,92.728ZM368.759,118.886C376.401,118.886 382.619,112.669 382.619,105.026C382.619,97.384 376.401,91.167 368.759,91.167C361.117,91.167 354.899,97.384 354.899,105.026C354.899,112.669 361.117,118.886 368.759,118.886Z" style="fill:white;fill-rule:nonzero;"/>
            </g>
            <g transform="matrix(0.793922,0,0,0.793922,-92.2641,43.8692)">
                <path d="M365.859,98.535L375.493,105.026L365.859,111.519L365.859,98.535ZM364.712,113.674C364.827,113.735 364.953,113.766 365.079,113.766C365.231,113.766 365.384,113.721 365.515,113.633L377.326,105.673C377.541,105.528 377.669,105.286 377.669,105.026C377.669,104.767 377.541,104.524 377.326,104.379L365.515,96.42C365.276,96.259 364.967,96.243 364.712,96.379C364.458,96.514 364.298,96.779 364.298,97.067L364.298,112.985C364.298,113.274 364.458,113.539 364.712,113.674Z" style="fill:white;fill-rule:nonzero;"/>
            </g>
        </g>
    </g>
</svg>
